<mxfile host="65bd71144e">
    <diagram id="GXh1fLimD9zF-dkmT1JG" name="Page-1">
        <mxGraphModel dx="2373" dy="533" grid="1" gridSize="10" guides="1" tooltips="1" connect="1" arrows="1" fold="1" page="1" pageScale="1" pageWidth="850" pageHeight="1100" background="none" math="0" shadow="0">
            <root>
                <mxCell id="0"/>
                <mxCell id="1" parent="0"/>
                <mxCell id="2" value="" style="rounded=1;whiteSpace=wrap;html=1;" vertex="1" parent="1">
                    <mxGeometry x="140" y="230" width="410" height="560" as="geometry"/>
                </mxCell>
                <mxCell id="5" value="" style="group" vertex="1" connectable="0" parent="1">
                    <mxGeometry x="325" y="90" width="40" height="90" as="geometry"/>
                </mxCell>
                <mxCell id="3" value="" style="shape=actor;whiteSpace=wrap;html=1;" vertex="1" parent="5">
                    <mxGeometry width="40" height="60" as="geometry"/>
                </mxCell>
                <mxCell id="4" value="User" style="text;html=1;strokeColor=none;fillColor=none;align=center;verticalAlign=middle;whiteSpace=wrap;rounded=0;" vertex="1" parent="5">
                    <mxGeometry y="70" width="40" height="20" as="geometry"/>
                </mxCell>
                <mxCell id="6" value="" style="endArrow=classic;html=1;" edge="1" parent="1" source="4" target="2">
                    <mxGeometry width="50" height="50" relative="1" as="geometry">
                        <mxPoint x="300" y="250" as="sourcePoint"/>
                        <mxPoint x="350" y="200" as="targetPoint"/>
                    </mxGeometry>
                </mxCell>
                <mxCell id="7" value="Client/Web" style="text;html=1;strokeColor=none;fillColor=none;align=center;verticalAlign=middle;whiteSpace=wrap;rounded=0;" vertex="1" parent="1">
                    <mxGeometry x="325" y="240" width="40" height="20" as="geometry"/>
                </mxCell>
                <mxCell id="10" value="" style="group" vertex="1" connectable="0" parent="1">
                    <mxGeometry x="165" y="270" width="360" height="40" as="geometry"/>
                </mxCell>
                <mxCell id="8" value="" style="rounded=1;whiteSpace=wrap;html=1;" vertex="1" parent="10">
                    <mxGeometry width="360" height="40" as="geometry"/>
                </mxCell>
                <mxCell id="9" value="React Shared Components" style="text;html=1;strokeColor=none;fillColor=none;align=center;verticalAlign=middle;whiteSpace=wrap;rounded=0;" vertex="1" parent="10">
                    <mxGeometry x="77.5" y="10" width="195" height="20" as="geometry"/>
                </mxCell>
                <mxCell id="12" value="" style="group" vertex="1" connectable="0" parent="1">
                    <mxGeometry x="165" y="330" width="360" height="40" as="geometry"/>
                </mxCell>
                <mxCell id="13" value="" style="rounded=1;whiteSpace=wrap;html=1;" vertex="1" parent="12">
                    <mxGeometry width="360" height="40" as="geometry"/>
                </mxCell>
                <mxCell id="14" value="Client Strore Encrypted Mnemonic" style="text;html=1;strokeColor=none;fillColor=none;align=center;verticalAlign=middle;whiteSpace=wrap;rounded=0;" vertex="1" parent="12">
                    <mxGeometry x="77.5" y="10" width="195" height="20" as="geometry"/>
                </mxCell>
                <mxCell id="73" value="" style="group" vertex="1" connectable="0" parent="1">
                    <mxGeometry x="690" y="400" width="120" height="60" as="geometry"/>
                </mxCell>
                <mxCell id="69" value="" style="rounded=1;whiteSpace=wrap;html=1;" vertex="1" parent="73">
                    <mxGeometry width="120" height="60" as="geometry"/>
                </mxCell>
                <mxCell id="72" value="CoinGecko" style="text;html=1;strokeColor=none;fillColor=none;align=center;verticalAlign=middle;whiteSpace=wrap;rounded=0;" vertex="1" parent="73">
                    <mxGeometry x="40" y="20" width="40" height="20" as="geometry"/>
                </mxCell>
                <mxCell id="77" value="" style="group" vertex="1" connectable="0" parent="1">
                    <mxGeometry x="690" y="480" width="120" height="60" as="geometry"/>
                </mxCell>
                <mxCell id="75" value="" style="rounded=1;whiteSpace=wrap;html=1;" vertex="1" parent="77">
                    <mxGeometry width="120" height="60" as="geometry"/>
                </mxCell>
                <mxCell id="76" value="YearnApi" style="text;html=1;strokeColor=none;fillColor=none;align=center;verticalAlign=middle;whiteSpace=wrap;rounded=0;" vertex="1" parent="77">
                    <mxGeometry x="40" y="20" width="40" height="20" as="geometry"/>
                </mxCell>
                <mxCell id="78" value="" style="group" vertex="1" connectable="0" parent="1">
                    <mxGeometry x="-70" y="600" width="120" height="204.62000000000006" as="geometry"/>
                </mxCell>
                <mxCell id="64" value="" style="rounded=1;whiteSpace=wrap;html=1;" vertex="1" parent="78">
                    <mxGeometry width="120" height="204.62" as="geometry"/>
                </mxCell>
                <mxCell id="65" value="Wallets" style="text;html=1;strokeColor=none;fillColor=none;align=center;verticalAlign=middle;whiteSpace=wrap;rounded=0;" vertex="1" parent="78">
                    <mxGeometry x="40" y="6.930000000000007" width="40" height="20" as="geometry"/>
                </mxCell>
                <mxCell id="67" value="&lt;ul&gt;&lt;li&gt;SSNative&lt;/li&gt;&lt;li&gt;&lt;span&gt;KeepKey&lt;/span&gt;&lt;/li&gt;&lt;li&gt;Ledger&lt;/li&gt;&lt;li&gt;Trezor&lt;/li&gt;&lt;li&gt;Portis&lt;/li&gt;&lt;li&gt;MetaMask&lt;/li&gt;&lt;/ul&gt;" style="text;strokeColor=none;fillColor=none;html=1;whiteSpace=wrap;verticalAlign=middle;overflow=hidden;" vertex="1" parent="78">
                    <mxGeometry y="26.930000000000007" width="100" height="150" as="geometry"/>
                </mxCell>
                <mxCell id="86" value="" style="group" vertex="1" connectable="0" parent="1">
                    <mxGeometry x="-90" y="360" width="160" height="130" as="geometry"/>
                </mxCell>
                <mxCell id="83" value="" style="rounded=1;whiteSpace=wrap;html=1;" vertex="1" parent="86">
                    <mxGeometry x="20" width="130" height="130" as="geometry"/>
                </mxCell>
                <mxCell id="84" value="Unchained" style="text;html=1;strokeColor=none;fillColor=none;align=center;verticalAlign=middle;whiteSpace=wrap;rounded=0;" vertex="1" parent="86">
                    <mxGeometry x="60" y="10" width="40" height="20" as="geometry"/>
                </mxCell>
                <mxCell id="85" value="&lt;ul&gt;&lt;li&gt;&lt;span&gt;BTC BlockBook&lt;/span&gt;&lt;/li&gt;&lt;li&gt;ETH BlockBook&lt;/li&gt;&lt;li&gt;Ropsten BlockBook&lt;/li&gt;&lt;/ul&gt;" style="text;strokeColor=none;fillColor=none;html=1;whiteSpace=wrap;verticalAlign=middle;overflow=hidden;" vertex="1" parent="86">
                    <mxGeometry y="30" width="160" height="80" as="geometry"/>
                </mxCell>
                <mxCell id="88" value="" style="group" vertex="1" connectable="0" parent="1">
                    <mxGeometry x="690" y="560" width="120" height="60" as="geometry"/>
                </mxCell>
                <mxCell id="80" value="" style="rounded=1;whiteSpace=wrap;html=1;" vertex="1" parent="88">
                    <mxGeometry width="120" height="60" as="geometry"/>
                </mxCell>
                <mxCell id="81" value="0x API" style="text;html=1;strokeColor=none;fillColor=none;align=center;verticalAlign=middle;whiteSpace=wrap;rounded=0;" vertex="1" parent="88">
                    <mxGeometry x="40" y="20" width="40" height="20" as="geometry"/>
                </mxCell>
                <mxCell id="92" value="" style="group" vertex="1" connectable="0" parent="1">
                    <mxGeometry x="690" y="640" width="120" height="60" as="geometry"/>
                </mxCell>
                <mxCell id="93" value="" style="rounded=1;whiteSpace=wrap;html=1;" vertex="1" parent="92">
                    <mxGeometry width="120" height="60" as="geometry"/>
                </mxCell>
                <mxCell id="94" value="Thorchain" style="text;html=1;strokeColor=none;fillColor=none;align=center;verticalAlign=middle;whiteSpace=wrap;rounded=0;" vertex="1" parent="92">
                    <mxGeometry x="40" y="20" width="40" height="20" as="geometry"/>
                </mxCell>
                <mxCell id="18" value="" style="group" vertex="1" connectable="0" parent="1">
                    <mxGeometry x="165" y="390" width="360" height="370" as="geometry"/>
                </mxCell>
                <mxCell id="16" value="" style="rounded=1;whiteSpace=wrap;html=1;" vertex="1" parent="18">
                    <mxGeometry y="-10" width="360" height="380" as="geometry"/>
                </mxCell>
                <mxCell id="17" value="Dependencies" style="text;html=1;strokeColor=none;fillColor=none;align=center;verticalAlign=middle;whiteSpace=wrap;rounded=0;" vertex="1" parent="18">
                    <mxGeometry x="160" y="-9.995730769230772" width="40" height="28.46153846153846" as="geometry"/>
                </mxCell>
                <mxCell id="25" value="" style="group" vertex="1" connectable="0" parent="18">
                    <mxGeometry x="15" y="60" width="330" height="32.83" as="geometry"/>
                </mxCell>
                <mxCell id="26" value="" style="rounded=1;whiteSpace=wrap;html=1;" vertex="1" parent="25">
                    <mxGeometry width="330" height="32.83" as="geometry"/>
                </mxCell>
                <mxCell id="27" value="Market Service" style="text;html=1;strokeColor=none;fillColor=none;align=center;verticalAlign=middle;whiteSpace=wrap;rounded=0;" vertex="1" parent="25">
                    <mxGeometry x="71.04166666666666" y="8.2075" width="178.75" height="16.415" as="geometry"/>
                </mxCell>
                <mxCell id="60" value="" style="group" vertex="1" connectable="0" parent="18">
                    <mxGeometry x="15" y="260" width="330" height="32.2" as="geometry"/>
                </mxCell>
                <mxCell id="61" value="" style="rounded=1;whiteSpace=wrap;html=1;" vertex="1" parent="60">
                    <mxGeometry width="330" height="32.2" as="geometry"/>
                </mxCell>
                <mxCell id="62" value="Logger" style="text;html=1;strokeColor=none;fillColor=none;align=center;verticalAlign=middle;whiteSpace=wrap;rounded=0;" vertex="1" parent="60">
                    <mxGeometry x="71.04166666666666" y="8.05" width="178.75" height="16.1" as="geometry"/>
                </mxCell>
                <mxCell id="145" value="" style="group" vertex="1" connectable="0" parent="18">
                    <mxGeometry x="15" y="300" width="330" height="32.2" as="geometry"/>
                </mxCell>
                <mxCell id="146" value="" style="rounded=1;whiteSpace=wrap;html=1;" vertex="1" parent="145">
                    <mxGeometry width="330" height="32.2" as="geometry"/>
                </mxCell>
                <mxCell id="147" value="HD Wallet" style="text;html=1;strokeColor=none;fillColor=none;align=center;verticalAlign=middle;whiteSpace=wrap;rounded=0;" vertex="1" parent="145">
                    <mxGeometry x="71.04166666666666" y="8.05" width="178.75" height="16.1" as="geometry"/>
                </mxCell>
                <mxCell id="56" value="" style="group" vertex="1" connectable="0" parent="18">
                    <mxGeometry x="15" y="220" width="330" height="32.2" as="geometry"/>
                </mxCell>
                <mxCell id="57" value="" style="rounded=1;whiteSpace=wrap;html=1;" vertex="1" parent="56">
                    <mxGeometry width="330" height="32.2" as="geometry"/>
                </mxCell>
                <mxCell id="58" value="Caip" style="text;html=1;strokeColor=none;fillColor=none;align=center;verticalAlign=middle;whiteSpace=wrap;rounded=0;" vertex="1" parent="56">
                    <mxGeometry x="71.04166666666666" y="8.05" width="178.75" height="16.1" as="geometry"/>
                </mxCell>
                <mxCell id="34" value="" style="group" vertex="1" connectable="0" parent="18">
                    <mxGeometry x="15" y="180.4" width="330" height="39.6" as="geometry"/>
                </mxCell>
                <mxCell id="35" value="" style="rounded=1;whiteSpace=wrap;html=1;" vertex="1" parent="34">
                    <mxGeometry width="330" height="29.700000000000003" as="geometry"/>
                </mxCell>
                <mxCell id="36" value="Types" style="text;html=1;strokeColor=none;fillColor=none;align=center;verticalAlign=middle;whiteSpace=wrap;rounded=0;" vertex="1" parent="34">
                    <mxGeometry x="71.04166666666666" y="6.46786271450858" width="178.75" height="12.93572542901716" as="geometry"/>
                </mxCell>
                <mxCell id="31" value="" style="group" vertex="1" connectable="0" parent="18">
                    <mxGeometry x="15" y="140" width="330" height="30.2" as="geometry"/>
                </mxCell>
                <mxCell id="32" value="" style="rounded=1;whiteSpace=wrap;html=1;" vertex="1" parent="31">
                    <mxGeometry width="330" height="30.200000000000003" as="geometry"/>
                </mxCell>
                <mxCell id="33" value="Swapper" style="text;html=1;strokeColor=none;fillColor=none;align=center;verticalAlign=middle;whiteSpace=wrap;rounded=0;" vertex="1" parent="31">
                    <mxGeometry x="71.04166666666666" y="7.550000000000001" width="178.75" height="15.100000000000001" as="geometry"/>
                </mxCell>
                <mxCell id="28" value="" style="group" vertex="1" connectable="0" parent="18">
                    <mxGeometry x="15" y="100" width="330" height="31.77" as="geometry"/>
                </mxCell>
                <mxCell id="29" value="" style="rounded=1;whiteSpace=wrap;html=1;" vertex="1" parent="28">
                    <mxGeometry width="330" height="31.77" as="geometry"/>
                </mxCell>
                <mxCell id="30" value="Asset Service" style="text;html=1;strokeColor=none;fillColor=none;align=center;verticalAlign=middle;whiteSpace=wrap;rounded=0;" vertex="1" parent="28">
                    <mxGeometry x="71.04166666666666" y="7.9425" width="178.75" height="15.885" as="geometry"/>
                </mxCell>
                <mxCell id="20" value="" style="group" vertex="1" connectable="0" parent="18">
                    <mxGeometry x="15" y="18.47" width="330" height="31.8" as="geometry"/>
                </mxCell>
                <mxCell id="21" value="" style="rounded=1;whiteSpace=wrap;html=1;" vertex="1" parent="20">
                    <mxGeometry width="330" height="31.800000000000004" as="geometry"/>
                </mxCell>
                <mxCell id="22" value="Chain Adapters" style="text;html=1;strokeColor=none;fillColor=none;align=center;verticalAlign=middle;whiteSpace=wrap;rounded=0;" vertex="1" parent="20">
                    <mxGeometry x="71.04166666666666" y="7.950000000000001" width="178.75" height="15.900000000000002" as="geometry"/>
                </mxCell>
                <mxCell id="149" value="" style="endArrow=none;html=1;" edge="1" parent="1" source="26">
                    <mxGeometry width="50" height="50" relative="1" as="geometry">
                        <mxPoint x="570" y="480" as="sourcePoint"/>
                        <mxPoint x="630" y="466" as="targetPoint"/>
                    </mxGeometry>
                </mxCell>
                <mxCell id="150" value="" style="endArrow=none;html=1;" edge="1" parent="1" source="29">
                    <mxGeometry width="50" height="50" relative="1" as="geometry">
                        <mxPoint x="630" y="480" as="sourcePoint"/>
                        <mxPoint x="630" y="506" as="targetPoint"/>
                    </mxGeometry>
                </mxCell>
                <mxCell id="151" value="" style="endArrow=none;html=1;" edge="1" parent="1">
                    <mxGeometry width="50" height="50" relative="1" as="geometry">
                        <mxPoint x="630" y="510" as="sourcePoint"/>
                        <mxPoint x="630" y="430" as="targetPoint"/>
                    </mxGeometry>
                </mxCell>
                <mxCell id="152" value="" style="endArrow=classic;html=1;" edge="1" parent="1" target="69">
                    <mxGeometry width="50" height="50" relative="1" as="geometry">
                        <mxPoint x="630" y="430" as="sourcePoint"/>
                        <mxPoint x="680" y="430" as="targetPoint"/>
                    </mxGeometry>
                </mxCell>
                <mxCell id="153" value="" style="endArrow=classic;html=1;" edge="1" parent="1" target="75">
                    <mxGeometry width="50" height="50" relative="1" as="geometry">
                        <mxPoint x="630" y="510" as="sourcePoint"/>
                        <mxPoint x="680" y="430" as="targetPoint"/>
                    </mxGeometry>
                </mxCell>
                <mxCell id="154" value="" style="edgeStyle=elbowEdgeStyle;elbow=horizontal;endArrow=classic;html=1;" edge="1" parent="1" source="32" target="80">
                    <mxGeometry width="50" height="50" relative="1" as="geometry">
                        <mxPoint x="630" y="550" as="sourcePoint"/>
                        <mxPoint x="680" y="500" as="targetPoint"/>
                    </mxGeometry>
                </mxCell>
                <mxCell id="155" value="" style="endArrow=none;dashed=1;html=1;dashPattern=1 3;strokeWidth=2;entryX=0;entryY=0.25;entryDx=0;entryDy=0;" edge="1" parent="1" source="32" target="93">
                    <mxGeometry width="50" height="50" relative="1" as="geometry">
                        <mxPoint x="630" y="550" as="sourcePoint"/>
                        <mxPoint x="680" y="500" as="targetPoint"/>
                    </mxGeometry>
                </mxCell>
                <mxCell id="156" value="" style="endArrow=classic;html=1;" edge="1" parent="1" source="21" target="83">
                    <mxGeometry width="50" height="50" relative="1" as="geometry">
                        <mxPoint x="630" y="550" as="sourcePoint"/>
                        <mxPoint x="680" y="500" as="targetPoint"/>
                    </mxGeometry>
                </mxCell>
                <mxCell id="157" value="" style="endArrow=classic;html=1;" edge="1" parent="1" source="146" target="64">
                    <mxGeometry width="50" height="50" relative="1" as="geometry">
                        <mxPoint x="630" y="550" as="sourcePoint"/>
                        <mxPoint x="680" y="500" as="targetPoint"/>
                    </mxGeometry>
                </mxCell>
            </root>
        </mxGraphModel>
    </diagram>
</mxfile>